# xmcd
#
# Track frame offsets:
#	150
#	20056
#	35179
#	45468
#	64265
#	80639
#	95424
#	111626
#	128235
#	140273
#	158835
#	178704
#	191265
#	206388
#	222762
#	238964
#	251002
#	270871
#
# Disc length: 3777 seconds
#
# Revision: 1
# Processed by: cddbd v1.5.2PL0 Copyright (c) Steve Scherf et al.
# Submitted via: audiograbber 1.83.01
#
DISCID=070ebf12
DTITLE=MARIACHI - MARIACHI
DYEAR=1900
DGENRE=
TTITLE0=AMOR DE UN RATO
TTITLE1=AUNQUE MAL PAGUEN ELLAS
TTITLE2=BESAME MORENITA
TTITLE3=INSENSIBLE A TI
TTITLE4=LA MITAD QUE ME FALTABA
TTITLE5=NIÑA AMADA MIA
TTITLE6=NO
TTITLE7=OLVIDARTE JAMAS
TTITLE8=PODRIA VOLVER
TTITLE9=QUE LASTIMA
TTITLE10=QUE VOY HACER CON MI AMOR
TTITLE11=SON LAS DOS DE LA MAÑANA
TTITLE12=BORRAR
TTITLE13=BORRAR
TTITLE14=BORRAR
TTITLE15=BORRAR
TTITLE16=BORRAR
TTITLE17=BORRAR
EXTD=
EXTT0=
EXTT1=
EXTT2=
EXTT3=
EXTT4=
EXTT5=
EXTT6=
EXTT7=
EXTT8=
EXTT9=
EXTT10=
EXTT11=
EXTT12=
EXTT13=
EXTT14=
EXTT15=
EXTT16=
EXTT17=
PLAYORDER=
